<mxfile host="Electron" agent="Mozilla/5.0 (Windows NT 10.0; Win64; x64) AppleWebKit/537.36 (KHTML, like Gecko) draw.io/26.1.1 Chrome/132.0.6834.210 Electron/34.3.3 Safari/537.36" version="26.1.1">
  <diagram name="Pagina-1" id="13KB2or2tinvepG6CU1X">
    <mxGraphModel dx="1034" dy="511" grid="1" gridSize="10" guides="1" tooltips="1" connect="1" arrows="1" fold="1" page="1" pageScale="1" pageWidth="827" pageHeight="1169" math="0" shadow="0">
      <root>
        <mxCell id="0" />
        <mxCell id="1" parent="0" />
        <mxCell id="lxgyXcaa12GPPOxntxfu-1" value="Utente" style="shape=umlActor;verticalLabelPosition=bottom;verticalAlign=top;html=1;outlineConnect=0;" vertex="1" parent="1">
          <mxGeometry x="100" y="180" width="30" height="60" as="geometry" />
        </mxCell>
        <mxCell id="lxgyXcaa12GPPOxntxfu-2" value="Segnala un Issue" style="ellipse;whiteSpace=wrap;html=1;" vertex="1" parent="1">
          <mxGeometry x="300" y="175" width="140" height="70" as="geometry" />
        </mxCell>
        <mxCell id="lxgyXcaa12GPPOxntxfu-4" value="" style="endArrow=none;html=1;edgeStyle=orthogonalEdgeStyle;rounded=0;" edge="1" parent="1" source="lxgyXcaa12GPPOxntxfu-1" target="lxgyXcaa12GPPOxntxfu-2">
          <mxGeometry relative="1" as="geometry">
            <mxPoint x="300" y="270" as="sourcePoint" />
            <mxPoint x="460" y="270" as="targetPoint" />
          </mxGeometry>
        </mxCell>
        <mxCell id="lxgyXcaa12GPPOxntxfu-7" value="Specifica Priorità" style="ellipse;whiteSpace=wrap;html=1;" vertex="1" parent="1">
          <mxGeometry x="530" y="105" width="140" height="70" as="geometry" />
        </mxCell>
        <mxCell id="lxgyXcaa12GPPOxntxfu-8" value="Aggiungi Immagine" style="ellipse;whiteSpace=wrap;html=1;" vertex="1" parent="1">
          <mxGeometry x="530" y="245" width="140" height="70" as="geometry" />
        </mxCell>
        <mxCell id="lxgyXcaa12GPPOxntxfu-9" value="&lt;span style=&quot;color: rgb(32, 33, 34); text-align: start; text-wrap-mode: wrap;&quot;&gt;&lt;font style=&quot;font-size: 11px;&quot;&gt;«extends»&lt;/font&gt;&lt;/span&gt;" style="html=1;verticalAlign=bottom;endArrow=open;dashed=1;endSize=8;curved=0;rounded=0;" edge="1" parent="1" source="lxgyXcaa12GPPOxntxfu-7" target="lxgyXcaa12GPPOxntxfu-2">
          <mxGeometry x="0.0561" y="-6" relative="1" as="geometry">
            <mxPoint x="580" y="180" as="sourcePoint" />
            <mxPoint x="500" y="180" as="targetPoint" />
            <mxPoint as="offset" />
          </mxGeometry>
        </mxCell>
        <mxCell id="lxgyXcaa12GPPOxntxfu-10" value="&lt;span style=&quot;color: rgb(32, 33, 34); text-align: start; text-wrap-mode: wrap;&quot;&gt;&lt;font style=&quot;font-size: 11px;&quot;&gt;«extends»&lt;/font&gt;&lt;/span&gt;" style="html=1;verticalAlign=bottom;endArrow=open;dashed=1;endSize=8;curved=0;rounded=0;" edge="1" parent="1" source="lxgyXcaa12GPPOxntxfu-8" target="lxgyXcaa12GPPOxntxfu-2">
          <mxGeometry x="-0.0457" y="25" relative="1" as="geometry">
            <mxPoint x="550" y="168" as="sourcePoint" />
            <mxPoint x="440" y="202" as="targetPoint" />
            <mxPoint as="offset" />
          </mxGeometry>
        </mxCell>
      </root>
    </mxGraphModel>
  </diagram>
</mxfile>
